<svg width="55" height="59" fill="none" xmlns="http://www.w3.org/2000/svg"><ellipse cx="27.388" cy="21.413" rx="19.245" ry="19.413" stroke="#F6255A" stroke-width="3"/><rect x="18.505" y="19.92" width="17.765" height="3" rx="1.5" fill="#F6255A"/><path d="M30.544 12.588c-.259-.792.327-1.628 1.16-1.628.58 0 1.068.419 1.226.975.575 2.027 1.654 3.599 2.048 9.105 0 2.83-1.157 5.516-2.05 9.133a1.237 1.237 0 01-1.194.947c-.848 0-1.444-.85-1.181-1.656.673-2.067 1.698-5.666 1.698-8.424 0-2.77-1.034-6.39-1.707-8.452zm-5.943 0c.259-.792-.327-1.628-1.16-1.628-.579 0-1.067.419-1.226.975-.575 2.027-1.654 3.599-2.048 9.105 0 2.83 1.158 5.516 2.05 9.133.137.551.627.947 1.195.947.847 0 1.443-.85 1.18-1.656-.673-2.067-1.698-5.666-1.698-8.424 0-2.77 1.034-6.39 1.707-8.452z" fill="#F6255A"/><circle cx="27.509" cy="52.105" stroke="#F6255A" stroke-width="3" r="4.912"/><rect y="49.787" width="15.544" height="3" rx="1.5" fill="#F6255A"/><rect x="38.491" y="49.787" width="15.544" height="3" rx="1.5" fill="#F6255A"/></svg>