<svg width="59" height="56" fill="none" xmlns="http://www.w3.org/2000/svg"><rect x="1.5" y="1.5" width="55.847" height="43.535" rx="13.5" stroke="#F6255A" stroke-width="3"/><rect x="16.477" y="51.268" width="25.893" height="2.847" rx="1.424" fill="#F6255A"/><path d="M36.799 19.506c-.277-.59-.218-1.305.232-1.777a1.42 1.42 0 00-.003-1.963l-.443-.462a1.298 1.298 0 00-1.876.002c-.44.463-1.148.524-1.718.234a7.963 7.963 0 00-.846-.37c-.616-.228-1.08-.783-1.08-1.44 0-.768-.624-1.391-1.392-1.391h-.498c-.769 0-1.392.623-1.392 1.391 0 .657-.464 1.212-1.08 1.44-.29.107-.573.231-.847.37-.57.29-1.277.229-1.718-.234a1.298 1.298 0 00-1.876-.002l-.443.462a1.418 1.418 0 00-.002 1.962c.451.471.51 1.185.233 1.775a8.91 8.91 0 00-.393.988c-.197.599-.728 1.048-1.357 1.048-.727 0-1.317.59-1.317 1.317v.8c0 .725.588 1.313 1.314 1.313.63 0 1.16.45 1.355 1.049.113.344.245.678.397 1.002.276.587.216 1.297-.234 1.765a1.41 1.41 0 00-.002 1.95l.451.474c.51.533 1.36.534 1.871.002.44-.46 1.144-.52 1.711-.23.28.142.568.269.864.378.612.226 1.073.777 1.073 1.429 0 .763.619 1.382 1.382 1.382h.518c.763 0 1.381-.619 1.381-1.382 0-.652.462-1.203 1.074-1.429.296-.11.584-.236.863-.378.567-.29 1.271-.23 1.712.23.51.532 1.361.531 1.87-.002l.452-.474a1.41 1.41 0 00-.003-1.95c-.449-.468-.51-1.178-.233-1.765.151-.324.284-.658.396-1.002.196-.599.726-1.049 1.356-1.049.725 0 1.313-.588 1.313-1.314v-.8c0-.726-.589-1.316-1.316-1.316-.63 0-1.16-.45-1.357-1.048a8.729 8.729 0 00-.392-.985zM29.424 29.76c-4.086 0-6.226-3.321-6.226-6.496 0-4.102 3.51-6.517 6.226-6.517 4.085 0 6.222 3.796 6.222 6.517 0 2.72-2.137 6.496-6.222 6.496z" fill="#F6255A"/></svg>