<svg width="58" height="55" fill="none" xmlns="http://www.w3.org/2000/svg"><path d="M37.8 48.39h-1.864c-1.164 0-2.28-.62-3.102-1.722-.823-1.102-1.285-2.597-1.285-4.156v-29.48c0-1.56.462-3.054 1.285-4.156.822-1.103 1.938-1.722 3.101-1.722H37.8m-.568 20.618h-5.683m19.244-15.816c2.631 0 4.764-1.935 4.764-4.322 0-2.386-2.133-4.321-4.764-4.321-2.631 0-4.764 1.935-4.764 4.321 0 2.387 2.133 4.322 4.764 4.322zm0 20.432c2.631 0 4.764-1.935 4.764-4.322 0-2.386-2.133-4.321-4.764-4.321-2.631 0-4.764 1.934-4.764 4.321 0 2.387 2.133 4.322 4.764 4.322zm-.027 20.407c2.631 0 4.764-1.935 4.764-4.322 0-2.386-2.133-4.321-4.764-4.321-2.631 0-4.764 1.934-4.764 4.321 0 2.387 2.133 4.322 4.764 4.322zM22.143 21.488v14.666l-4.208 2.061v13.268H6.208V38.215L2 36.154V21.488c0-1.567.686-3.07 1.908-4.178s2.879-1.73 4.606-1.73h7.115c1.728 0 3.384.622 4.606 1.73 1.221 1.109 1.907 2.611 1.907 4.178h.002zM12.073 10.94c2.722 0 4.928-2 4.928-4.47 0-2.469-2.206-4.47-4.928-4.47S7.144 4.001 7.144 6.47c0 2.47 2.207 4.47 4.929 4.47z" stroke="#F6255A" stroke-width="3" stroke-miterlimit="10" stroke-linecap="round" stroke-linejoin="round"/></svg>