<svg width="60" height="60" fill="none" xmlns="http://www.w3.org/2000/svg"><rect x="31" y="28.5" width="22" height="3" rx="1.5" fill="#F6255A"/><path d="M58.5 23L51 30l7.5 7.5" stroke="#F6255A" stroke-width="3" stroke-linecap="round"/><path d="M54 15.563C49.1 7.434 40.185 2 30.002 2 14.537 2 2 14.536 2 30s12.537 28 28.002 28C40.185 58 49.1 52.565 54 44.437" stroke="#F6255A" stroke-width="3" stroke-linecap="round"/><path d="M43 21.75C40.267 17.106 35.296 14 29.617 14 20.992 14 14 21.163 14 30s6.992 16 15.617 16c5.679 0 10.65-3.106 13.383-7.75" stroke="#F6255A" stroke-width="3" stroke-linecap="round"/></svg>