<svg width="60" height="60" fill="none" xmlns="http://www.w3.org/2000/svg"><path fill-rule="evenodd" clip-rule="evenodd" d="M26.23 13.307C26.23 6.17 32.018.385 39.155.385h5.923c8.03 0 14.538 6.509 14.538 14.538V33.23c0 8.03-6.509 14.539-14.538 14.539H40.77c-8.03 0-14.538-6.51-14.538-14.539v-2.154a1.615 1.615 0 013.23 0v2.154c0 6.245 5.063 11.308 11.308 11.308h4.308c6.245 0 11.308-5.063 11.308-11.308V14.923c0-6.245-5.063-11.308-11.308-11.308h-5.923c-5.353 0-9.693 4.34-9.693 9.692a1.615 1.615 0 01-3.23 0z" fill="#F6255A"/><path d="M34.308 16.538c0-.892.723-1.615 1.615-1.615h11.846a1.615 1.615 0 010 3.23H35.923a1.615 1.615 0 01-1.615-1.615zm0 7.538c0-.892.723-1.615 1.615-1.615h6.462a1.615 1.615 0 110 3.23h-6.462a1.615 1.615 0 01-1.615-1.614z" fill="#F6255A"/><path fill-rule="evenodd" clip-rule="evenodd" d="M8.173 22.109a4.558 4.558 0 00-4.558 4.557v14.357l3.14 1.696c.523.282.848.828.848 1.421v12.245h7.881V44.14c0-.593.326-1.139.848-1.421l3.14-1.696V26.666a1.615 1.615 0 113.23 0v15.32c0 .594-.325 1.14-.847 1.422l-3.14 1.696V58c0 .892-.723 1.615-1.616 1.615H5.988A1.615 1.615 0 014.372 58V45.104l-3.14-1.696a1.615 1.615 0 01-.847-1.422v-15.32a7.788 7.788 0 017.788-7.788h20.211a1.615 1.615 0 110 3.23H8.174zm3.371-14.186a3.055 3.055 0 100 6.11 3.055 3.055 0 000-6.11zM5.26 10.978a6.286 6.286 0 1112.57 0 6.286 6.286 0 01-12.57 0zm23.026 46.45c0-.946.767-1.714 1.714-1.714h25.143a1.714 1.714 0 110 3.429H30a1.714 1.714 0 01-1.714-1.715z" fill="#F6255A"/><path fill-rule="evenodd" clip-rule="evenodd" d="M42.572 50c.946 0 1.714.767 1.714 1.714v4.572a1.714 1.714 0 11-3.429 0v-4.572c0-.947.768-1.714 1.715-1.714z" fill="#F6255A"/></svg>