<svg width="56" height="60" fill="none" xmlns="http://www.w3.org/2000/svg"><path d="M53.652 14.727c0 1.375-.937 2.876-3 4.114-2.033 1.22-4.938 2.023-8.228 2.023s-6.194-.803-8.227-2.023c-2.063-1.238-3-2.739-3-4.114s.937-2.876 3-4.113c2.032-1.22 4.938-2.023 8.227-2.023 3.29 0 6.195.803 8.228 2.023 2.063 1.237 3 2.738 3 4.113zM23.954 35.091c0 1.375-.936 2.876-2.999 4.113-2.033 1.22-4.938 2.023-8.228 2.023s-6.195-.803-8.228-2.023C2.437 37.967 1.5 36.466 1.5 35.091c0-1.375.937-2.876 3-4.114 2.032-1.22 4.938-2.022 8.227-2.022 3.29 0 6.195.803 8.228 2.023 2.063 1.237 3 2.738 3 4.113z" stroke="#F6255A" stroke-width="3"/><path d="M31.394 25.758s3.394 3.393 11.03 3.393c7.637 0 10.606-3.393 10.606-3.393M1.697 45.273s3.394 3.394 11.03 3.394c7.637 0 10.606-3.394 10.606-3.394m8.061-10.183s3.394 3.395 11.03 3.395c7.637 0 10.606-3.394 10.606-3.394M1.697 54.606S5.091 58 12.727 58c7.637 0 10.606-3.394 10.606-3.394M4.242 9.636l7.816-7.034a1 1 0 011.338 0l7.816 7.034m10.182 34.788s3.394 3.394 11.03 3.394c7.637 0 10.606-3.394 10.606-3.394m-21.636 9.334s3.394 3.393 11.03 3.393c7.637 0 10.606-3.393 10.606-3.393" stroke="#F6255A" stroke-width="3" stroke-linecap="round"/><rect x="11.455" y="7.091" width="2.545" height="12.727" rx="1.273" fill="#F6255A"/></svg>