<svg width="17" height="17" fill="none" xmlns="http://www.w3.org/2000/svg"><path d="M14.71 11.383a3.328 3.328 0 01-3.327 3.327H4.918a3.328 3.328 0 01-3.328-3.327V4.917A3.328 3.328 0 014.918 1.59h6.465a3.328 3.328 0 013.328 3.327v6.466zm1.59-6.538A4.845 4.845 0 0011.457 0H4.845A4.845 4.845 0 000 4.845v6.611a4.845 4.845 0 004.845 4.845h6.61a4.845 4.845 0 004.846-4.845V4.845zm-2.89-1.049a.946.946 0 11-1.89 0 .946.946 0 011.89 0z" fill="#F2F2FF"/><path d="M.815 7.743h14.67V5.815a5 5 0 00-5-5h-4.67a5 5 0 00-5 5v1.928zm7.335 4.483c-2.25 0-4.075-1.63-4.075-4.483h8.15c0 3.26-1.824 4.483-4.075 4.483z" fill="#F2F2FF"/><path d="M8.15 5.705A2.445 2.445 0 005.705 8.15h4.89A2.445 2.445 0 008.15 5.705zm0 4.891c-1.35 0-2.445-1.048-2.445-2.445h4.89c0 1.746-1.094 2.445-2.445 2.445z" fill="#222"/><circle cx="12.633" cy="3.668" r="1.223" fill="#222"/></svg>